<svg xmlns="http://www.w3.org/2000/svg" viewBox="0 0 512 512">
  <defs>
    <linearGradient id="bg" x1="0" y1="0" x2="1" y2="1">
      <stop offset="0" stop-color="#182331"/>
      <stop offset="1" stop-color="#0a0f16"/>
    </linearGradient>
    <linearGradient id="meter" x1="0" y1="0" x2="1" y2="0">
      <stop offset="0" stop-color="#43e0ba"/>
      <stop offset="1" stop-color="#69a7ff"/>
    </linearGradient>
  </defs>
  <rect x="24" y="24" width="464" height="464" rx="112" fill="url(#bg)"/>
  <path d="M128 170h256a34 34 0 0 1 34 34v104a34 34 0 0 1-34 34H128a34 34 0 0 1-34-34V204a34 34 0 0 1 34-34Z" fill="#111c27" stroke="#33475b" stroke-width="18"/>
  <rect x="128" y="231" width="256" height="50" rx="25" fill="#26384a"/>
  <rect x="128" y="231" width="190" height="50" rx="25" fill="url(#meter)"/>
  <circle cx="370" cy="256" r="12" fill="#dcecff"/>
</svg>
